<svg width="12" height="7" viewBox="0 0 12 7" fill="none" xmlns="http://www.w3.org/2000/svg">
<path d="M11.56 2.12007L9.64 0.160069C9.53333 0.0534019 9.41333 6.86646e-05 9.28 6.86646e-05C9.14667 6.86646e-05 9.02667 0.0534019 8.92 0.160069C8.81333 0.266735 8.76 0.386735 8.76 0.520069C8.76 0.653402 8.81333 0.773402 8.92 0.880068L10.68 2.64007H0.52C0.36 2.66674 0.233333 2.72674 0.14 2.82007C0.0466667 2.9134 0 3.02674 0 3.16007C0 3.2934 0.0466667 3.4134 0.14 3.52007C0.233333 3.62673 0.346667 3.68007 0.48 3.68007H10.72L8.92 5.48007C8.81333 5.56007 8.76 5.6734 8.76 5.82007C8.76 5.96674 8.81333 6.08007 8.92 6.16007C9.02667 6.26674 9.14667 6.32007 9.28 6.32007C9.41333 6.32007 9.53333 6.26674 9.64 6.16007L11.56 4.24007C11.8533 3.94674 12 3.5934 12 3.18007C12 2.76674 11.8533 2.4134 11.56 2.12007Z" fill="#005EFF"/>
</svg>
