<svg width="16" height="16" viewBox="0 0 16 16" fill="none" xmlns="http://www.w3.org/2000/svg">
<path d="M13.3333 0H7.36C7.14667 0 6.97778 0.0622215 6.85333 0.186666C6.72889 0.31111 6.66667 0.47111 6.66667 0.666666C6.66667 0.862222 6.72889 1.02222 6.85333 1.14667C6.97778 1.27111 7.14667 1.33333 7.36 1.33333H13.3333C13.44 1.33333 13.5467 1.35111 13.6533 1.38667L0.213333 14.88C0.0711111 14.9867 0 15.1378 0 15.3333C0 15.5289 0.0622222 15.6889 0.186667 15.8133C0.311111 15.9378 0.471111 16 0.666667 16C0.862222 16 1.01333 15.9289 1.12 15.7867L14.6133 2.34667C14.6489 2.45333 14.6667 2.56 14.6667 2.66667V8.64C14.6667 8.85333 14.7289 9.02222 14.8533 9.14667C14.9778 9.27111 15.1378 9.33333 15.3333 9.33333C15.5289 9.33333 15.6889 9.27111 15.8133 9.14667C15.9378 9.02222 16 8.87111 16 8.69333V2.66667C16 1.92 15.7422 1.28889 15.2267 0.773333C14.7111 0.257777 14.08 0 13.3333 0Z" fill="#004B88"/>
</svg>
